<?xml version="1.0" encoding="UTF-8" standalone="no"?><!DOCTYPE svg PUBLIC "-//W3C//DTD SVG 1.1//EN" "http://www.w3.org/Graphics/SVG/1.1/DTD/svg11.dtd"><svg width="100%" height="100%" viewBox="0 0 2250 2250" version="1.1" xmlns="http://www.w3.org/2000/svg" xmlns:xlink="http://www.w3.org/1999/xlink" xml:space="preserve" xmlns:serif="http://www.serif.com/" style="fill-rule:evenodd;clip-rule:evenodd;stroke-linejoin:round;stroke-miterlimit:2;"><path d="M403.34,979.355c2.041,-127.368 9.18,-147.993 24.498,-275.264c25.439,-211.36 134.691,-284.234 140.061,-287.033c240.881,0.163 187.679,408.602 202.112,680.767c20.219,381.281 -123.002,1101.54 -303.03,680.344c-12.902,-30.183 -46.867,-448.235 -49.581,-463.604" style="fill:url(#_Linear1);"/><path d="M172.031,1909.31c0.951,-59.391 92.046,-402.291 98.52,-759.164c7.41,-408.461 -69.594,-833.049 -66.728,-834.542c240.881,0.162 436.548,-32.271 418.544,824.175c-21.889,1041.27 -447.575,784.9 -450.336,769.531Z" style="fill:url(#_Linear2);"/><path d="M771.313,1005.81c1.817,-127.368 -28.977,-81.537 -1.111,-205.848c31.348,-139.846 108.953,-161.957 113.735,-164.756c75.734,73.077 117.2,127.914 164.498,396.934c65.859,374.585 -101.781,970.593 -262.087,549.398c-11.488,-30.184 -10.881,-232.635 -13.298,-248.003" style="fill:url(#_Linear3);"/><path d="M1064.49,996.107c2.169,-127.368 3.39,-76.715 36.648,-201.025c37.413,-139.847 130.033,-161.958 135.739,-164.757c90.389,73.077 127.328,126.12 183.778,395.14c78.601,374.585 -108.925,972.387 -300.248,551.192c-13.71,-30.184 -38.091,-229.971 -40.975,-245.339" style="fill:url(#_Linear4);"/><path d="M767.845,1654.29c0.682,-127.367 8.593,-783.075 6.877,-988.723c80.56,0.162 144.327,57.825 131.124,501.574c-13.522,454.479 -137.078,502.518 -138.001,487.149Z" style="fill:#ffd2d2;"/><path d="M1049.95,1670.54c1.223,-127.368 12.208,-789.36 9.133,-995.008c76.719,9.532 127.815,-48.546 163.949,6.441c36.187,55.068 57.356,223.358 58.41,445.187c0.981,206.527 -34.829,473.063 -86.88,556.556c-62.653,100.498 -143.708,-4.782 -144.612,-13.176Z" style="fill:#ffdcd2;"/><path d="M1430.33,1011.35c1.645,-127.368 2.571,-76.715 27.797,-201.026c28.377,-139.846 98.628,-161.957 102.957,-164.756c68.559,73.077 38.672,124.982 81.489,394.003c59.618,374.584 -24.714,973.524 -169.831,552.329c-10.399,-30.184 -28.892,-229.971 -31.079,-245.34" style="fill:url(#_Linear5);"/><path d="M1661.1,999.442c3.122,-127.368 4.879,-76.715 52.741,-201.025c53.844,-139.847 187.138,-161.958 195.351,-164.757c130.082,73.077 187.559,265.187 194.011,546.132c9.63,419.289 -86.287,821.395 -361.63,400.2c-19.731,-30.184 -54.819,-229.971 -58.969,-245.339" style="fill:url(#_Linear6);"/><clipPath id="_clip7"><path d="M1912.12,-72.792c-294.836,-26.909 -1580.49,172.474 -1708.24,260.213c-38.589,26.505 57.228,181.256 120.119,393.759c55.064,186.057 75.095,423.355 88.01,564.778c35.875,392.864 79.189,700.231 156.614,683.906c219.154,-46.209 137.963,-988.448 333.881,-991.438c162.723,-2.483 224.005,824.472 313.42,821.686c148.974,-4.641 197.323,-635.867 295.861,-636.047c164.346,-0.301 198.242,454.999 300.26,509.603c120.143,64.306 105.681,-331.157 289.105,-338.398c133.744,-5.28 94.854,-41.147 0.793,-39.321c-190.93,3.705 -134.253,-398.255 -276.738,-364.263c-121.51,28.987 -149.135,495.883 -322.299,501.563c-79.01,2.592 -139.926,-598.139 -270.242,-599.937c-127.674,-1.761 -194.356,824.276 -350.884,825.415c-156.949,1.143 -71.603,-927.07 -312.034,-1036.57c-108.574,-49.449 -139.567,424.589 -157.737,663.804c-12.496,164.511 -40.58,380.124 -100.799,532.993c-101.189,256.871 -242.797,416.633 -186.331,443.483c200.367,95.277 1597.39,56.424 1877.18,18.428c30.037,-4.079 114.714,-57.186 144.596,-188.054c61.099,-267.579 59.48,-728.688 58.474,-839.082c-0.759,-83.248 27.806,-486.225 -34.674,-769.448c-58.269,-264.135 -205.868,-412.28 -258.342,-417.07Z"/></clipPath><g clip-path="url(#_clip7)"><path d="M2102.66,435.82l0,1394.42c0,173.428 -140.802,314.23 -314.23,314.23l-1384.12,0c-173.428,0 -314.23,-140.802 -314.23,-314.23l-0,-1394.42c-0,-173.429 140.802,-314.231 314.23,-314.231l1384.12,0c173.428,0 314.23,140.802 314.23,314.231Z" style="fill:url(#_Linear8);"/></g><defs><linearGradient id="_Linear1" x1="0" y1="0" x2="1" y2="0" gradientUnits="userSpaceOnUse" gradientTransform="matrix(321.064,0,0,977.537,408.383,1173.1)"><stop offset="0" style="stop-color:#fff;stop-opacity:1"/><stop offset="1" style="stop-color:#ffdfcc;stop-opacity:1"/></linearGradient><linearGradient id="_Linear2" x1="0" y1="0" x2="1" y2="0" gradientUnits="userSpaceOnUse" gradientTransform="matrix(321.064,0,0,977.537,168.695,1148.67)"><stop offset="0" style="stop-color:#fff;stop-opacity:1"/><stop offset="1" style="stop-color:#ffdfcc;stop-opacity:1"/></linearGradient><linearGradient id="_Linear3" x1="0" y1="0" x2="1" y2="0" gradientUnits="userSpaceOnUse" gradientTransform="matrix(285.891,0,0,977.537,743.986,1194.73)"><stop offset="0" style="stop-color:#fff;stop-opacity:1"/><stop offset="1" style="stop-color:#ffc1c2;stop-opacity:1"/></linearGradient><linearGradient id="_Linear4" x1="0" y1="0" x2="1" y2="0" gradientUnits="userSpaceOnUse" gradientTransform="matrix(341.206,0,0,977.537,1069.85,1189.85)"><stop offset="0" style="stop-color:#fff;stop-opacity:1"/><stop offset="1" style="stop-color:#ffdcdb;stop-opacity:1"/></linearGradient><linearGradient id="_Linear5" x1="0" y1="0" x2="1" y2="0" gradientUnits="userSpaceOnUse" gradientTransform="matrix(258.802,0,0,977.537,1434.39,1205.09)"><stop offset="0" style="stop-color:#fff;stop-opacity:1"/><stop offset="1" style="stop-color:#fff2c6;stop-opacity:1"/></linearGradient><linearGradient id="_Linear6" x1="0" y1="0" x2="1" y2="0" gradientUnits="userSpaceOnUse" gradientTransform="matrix(491.047,0,0,977.537,1668.82,1193.18)"><stop offset="0" style="stop-color:#fff;stop-opacity:1"/><stop offset="1" style="stop-color:#ffd1c3;stop-opacity:1"/></linearGradient><linearGradient id="_Linear8" x1="0" y1="0" x2="1" y2="0" gradientUnits="userSpaceOnUse" gradientTransform="matrix(2012.58,0,0,2022.88,90.0808,1133.03)"><stop offset="0" style="stop-color:#fb827d;stop-opacity:1"/><stop offset="0.55" style="stop-color:#ea8881;stop-opacity:1"/><stop offset="1" style="stop-color:#e38a82;stop-opacity:1"/></linearGradient></defs></svg>